<svg width="1200" height="420" viewBox="0 0 1200 420" fill="none" xmlns="http://www.w3.org/2000/svg" role="img" aria-labelledby="title desc">
  <title id="title">动态谈判作战参谋 Skill</title>
  <desc id="desc">Negotiation War Room Skill banner for a Chinese negotiation decision system for AI agents.</desc>
  <defs>
    <linearGradient id="bg" x1="0" y1="0" x2="1200" y2="420" gradientUnits="userSpaceOnUse">
      <stop stop-color="#0F172A"/>
      <stop offset="0.52" stop-color="#152238"/>
      <stop offset="1" stop-color="#0B3B3A"/>
    </linearGradient>
    <linearGradient id="card" x1="170" y1="88" x2="1030" y2="332" gradientUnits="userSpaceOnUse">
      <stop stop-color="#FFFFFF" stop-opacity="0.14"/>
      <stop offset="1" stop-color="#FFFFFF" stop-opacity="0.06"/>
    </linearGradient>
    <filter id="shadow" x="-20%" y="-20%" width="140%" height="140%">
      <feDropShadow dx="0" dy="24" stdDeviation="28" flood-color="#020617" flood-opacity="0.32"/>
    </filter>
    <style>
      .title { font: 700 58px -apple-system, BlinkMacSystemFont, "Segoe UI", "Noto Sans SC", "PingFang SC", "Microsoft YaHei", sans-serif; fill: #F8FAFC; }
      .subtitle { font: 600 26px -apple-system, BlinkMacSystemFont, "Segoe UI", Arial, sans-serif; fill: #A7F3D0; letter-spacing: 0.5px; }
      .line { font: 500 24px -apple-system, BlinkMacSystemFont, "Segoe UI", "Noto Sans SC", "PingFang SC", "Microsoft YaHei", sans-serif; fill: #CBD5E1; }
      .tag { font: 600 16px -apple-system, BlinkMacSystemFont, "Segoe UI", "Noto Sans SC", "PingFang SC", "Microsoft YaHei", sans-serif; fill: #E2E8F0; }
      .small { font: 500 14px -apple-system, BlinkMacSystemFont, "Segoe UI", Arial, sans-serif; fill: #94A3B8; }
    </style>
  </defs>
  <rect width="1200" height="420" rx="30" fill="url(#bg)"/>
  <g opacity="0.26">
    <path d="M80 92H1120" stroke="#5EEAD4" stroke-width="1"/>
    <path d="M80 328H1120" stroke="#38BDF8" stroke-width="1"/>
    <path d="M146 40V380" stroke="#334155" stroke-width="1"/>
    <path d="M1054 40V380" stroke="#334155" stroke-width="1"/>
  </g>
  <circle cx="986" cy="96" r="92" fill="#14B8A6" opacity="0.13"/>
  <circle cx="198" cy="326" r="118" fill="#38BDF8" opacity="0.1"/>
  <g filter="url(#shadow)">
    <rect x="96" y="72" width="1008" height="276" rx="26" fill="url(#card)" stroke="#FFFFFF" stroke-opacity="0.18"/>
  </g>
  <g transform="translate(145 122)">
    <text class="subtitle" x="0" y="0">Negotiation War Room Skill</text>
    <text class="title" x="0" y="76">动态谈判作战参谋 Skill</text>
    <text class="line" x="0" y="124">面向 ChatGPT / Claude / Codex / Cursor 的中文谈判决策系统</text>
  </g>
  <g transform="translate(146 286)">
    <rect x="0" y="-28" width="92" height="38" rx="19" fill="#0F766E" opacity="0.9"/>
    <text class="tag" x="20" y="-4">谈判</text>
    <rect x="108" y="-28" width="92" height="38" rx="19" fill="#1D4ED8" opacity="0.9"/>
    <text class="tag" x="128" y="-4">决策</text>
    <rect x="216" y="-28" width="92" height="38" rx="19" fill="#7C3AED" opacity="0.9"/>
    <text class="tag" x="236" y="-4">筹码</text>
    <rect x="324" y="-28" width="92" height="38" rx="19" fill="#B45309" opacity="0.9"/>
    <text class="tag" x="344" y="-4">策略</text>
    <rect x="432" y="-28" width="126" height="38" rx="19" fill="#BE123C" opacity="0.9"/>
    <text class="tag" x="454" y="-4">风险审查</text>
    <rect x="574" y="-28" width="126" height="38" rx="19" fill="#334155" opacity="0.95"/>
    <text class="tag" x="596" y="-4">Agent Skill</text>
  </g>
  <g transform="translate(858 154)">
    <rect x="0" y="0" width="190" height="114" rx="18" fill="#020617" fill-opacity="0.32" stroke="#5EEAD4" stroke-opacity="0.45"/>
    <path d="M38 74L74 38L108 72L148 32" stroke="#5EEAD4" stroke-width="6" stroke-linecap="round" stroke-linejoin="round"/>
    <circle cx="38" cy="74" r="7" fill="#A7F3D0"/>
    <circle cx="74" cy="38" r="7" fill="#A7F3D0"/>
    <circle cx="108" cy="72" r="7" fill="#A7F3D0"/>
    <circle cx="148" cy="32" r="7" fill="#A7F3D0"/>
    <text class="small" x="33" y="99">BATNA · ZOPA · MESO</text>
  </g>
</svg>
